# Native macOS ScreenCaptureKit recording
# Format: n:<frame_number> pts_time:<seconds> perf_counter_ms:<milliseconds>
n:     0 pts_time:0.000000 perf_counter_ms:34607156.329
n:     1 pts_time:0.040014 perf_counter_ms:34607196.343
n:     2 pts_time:0.066691 perf_counter_ms:34607223.020
n:     3 pts_time:0.106705 perf_counter_ms:34607263.034
n:     4 pts_time:0.133381 perf_counter_ms:34607289.710
n:     5 pts_time:0.173395 perf_counter_ms:34607329.725
n:     6 pts_time:0.213410 perf_counter_ms:34607369.739
n:     7 pts_time:0.240086 perf_counter_ms:34607396.415
n:     8 pts_time:0.280100 perf_counter_ms:34607436.429
n:     9 pts_time:0.306776 perf_counter_ms:34607463.106
n:    10 pts_time:0.346791 perf_counter_ms:34607503.120
n:    11 pts_time:0.386805 perf_counter_ms:34607543.134
n:    12 pts_time:0.413481 perf_counter_ms:34607569.810
n:    13 pts_time:0.453496 perf_counter_ms:34607609.825
n:    14 pts_time:0.480172 perf_counter_ms:34607636.501
n:    15 pts_time:0.520186 perf_counter_ms:34607676.515
n:    16 pts_time:0.560200 perf_counter_ms:34607716.530
n:    17 pts_time:0.586877 perf_counter_ms:34607743.206
n:    18 pts_time:0.626891 perf_counter_ms:34607783.220
n:    19 pts_time:0.653567 perf_counter_ms:34607809.896
n:    20 pts_time:0.693581 perf_counter_ms:34607849.911
n:    21 pts_time:0.733596 perf_counter_ms:34607889.925
n:    22 pts_time:0.760272 perf_counter_ms:34607916.601
n:    23 pts_time:0.800286 perf_counter_ms:34607956.615
n:    24 pts_time:0.840301 perf_counter_ms:34607996.630
n:    25 pts_time:0.866977 perf_counter_ms:34608023.306
n:    26 pts_time:0.906991 perf_counter_ms:34608063.320
n:    27 pts_time:0.920329 perf_counter_ms:34608076.658
n:    28 pts_time:0.973682 perf_counter_ms:34608130.011
n:    29 pts_time:1.013696 perf_counter_ms:34608170.025
n:    30 pts_time:1.040372 perf_counter_ms:34608196.701
n:    31 pts_time:1.080386 perf_counter_ms:34608236.716
n:    32 pts_time:1.120401 perf_counter_ms:34608276.730
n:    33 pts_time:1.147077 perf_counter_ms:34608303.406
n:    34 pts_time:1.187091 perf_counter_ms:34608343.420
n:    35 pts_time:1.227105 perf_counter_ms:34608383.435
n:    36 pts_time:1.253782 perf_counter_ms:34608410.111
n:    37 pts_time:1.293796 perf_counter_ms:34608450.125
n:    38 pts_time:1.320472 perf_counter_ms:34608476.801
n:    39 pts_time:1.360486 perf_counter_ms:34608516.816
n:    40 pts_time:1.387163 perf_counter_ms:34608543.492
n:    41 pts_time:1.427177 perf_counter_ms:34608583.506
n:    42 pts_time:1.467191 perf_counter_ms:34608623.520
n:    43 pts_time:1.507206 perf_counter_ms:34608663.535
n:    44 pts_time:1.547220 perf_counter_ms:34608703.549
n:    45 pts_time:1.587234 perf_counter_ms:34608743.563
n:    46 pts_time:1.613910 perf_counter_ms:34608770.239
n:    47 pts_time:1.653925 perf_counter_ms:34608810.254
n:    48 pts_time:1.680601 perf_counter_ms:34608836.930
n:    49 pts_time:1.720615 perf_counter_ms:34608876.944
n:    50 pts_time:1.760629 perf_counter_ms:34608916.958
n:    51 pts_time:1.773967 perf_counter_ms:34608930.297
n:    52 pts_time:1.827320 perf_counter_ms:34608983.649
n:    53 pts_time:1.880672 perf_counter_ms:34609037.001
n:    54 pts_time:1.907349 perf_counter_ms:34609063.678
n:    55 pts_time:1.947363 perf_counter_ms:34609103.692
n:    56 pts_time:1.974039 perf_counter_ms:34609130.368
n:    57 pts_time:2.014053 perf_counter_ms:34609170.382
n:    58 pts_time:2.040729 perf_counter_ms:34609197.059
n:    59 pts_time:2.080744 perf_counter_ms:34609237.073
n:    60 pts_time:2.120758 perf_counter_ms:34609277.087
n:    61 pts_time:2.147434 perf_counter_ms:34609303.763
n:    62 pts_time:2.187449 perf_counter_ms:34609343.778
n:    63 pts_time:2.214125 perf_counter_ms:34609370.454
n:    64 pts_time:2.254139 perf_counter_ms:34609410.468
n:    65 pts_time:2.280815 perf_counter_ms:34609437.144
n:    66 pts_time:2.320829 perf_counter_ms:34609477.159
n:    67 pts_time:2.347506 perf_counter_ms:34609503.835
n:    68 pts_time:2.387520 perf_counter_ms:34609543.849
n:    69 pts_time:2.427534 perf_counter_ms:34609583.863
n:    70 pts_time:2.454210 perf_counter_ms:34609610.540
n:    71 pts_time:2.494225 perf_counter_ms:34609650.554
n:    72 pts_time:2.520901 perf_counter_ms:34609677.230
n:    73 pts_time:2.560915 perf_counter_ms:34609717.244
n:    74 pts_time:2.587591 perf_counter_ms:34609743.921
n:    75 pts_time:2.627606 perf_counter_ms:34609783.935
n:    76 pts_time:2.654282 perf_counter_ms:34609810.611
n:    77 pts_time:2.694296 perf_counter_ms:34609850.625
n:    78 pts_time:2.720972 perf_counter_ms:34609877.302
n:    79 pts_time:2.760987 perf_counter_ms:34609917.316
n:    80 pts_time:2.801001 perf_counter_ms:34609957.330
n:    81 pts_time:2.827677 perf_counter_ms:34609984.006
n:    82 pts_time:2.854353 perf_counter_ms:34610010.682
n:    83 pts_time:2.894368 perf_counter_ms:34610050.697
n:    84 pts_time:2.934382 perf_counter_ms:34610090.711
n:    85 pts_time:2.974396 perf_counter_ms:34610130.725
n:    86 pts_time:2.987734 perf_counter_ms:34610144.063
n:    87 pts_time:3.041087 perf_counter_ms:34610197.416
n:    88 pts_time:3.054425 perf_counter_ms:34610210.754
n:    89 pts_time:3.107777 perf_counter_ms:34610264.106
n:    90 pts_time:3.134453 perf_counter_ms:34610290.783
n:    91 pts_time:3.174468 perf_counter_ms:34610330.797
n:    92 pts_time:3.214482 perf_counter_ms:34610370.811
n:    93 pts_time:3.241158 perf_counter_ms:34610397.487
n:    94 pts_time:3.281172 perf_counter_ms:34610437.502
n:    95 pts_time:3.307849 perf_counter_ms:34610464.178
n:    96 pts_time:3.347863 perf_counter_ms:34610504.192
n:    97 pts_time:3.387877 perf_counter_ms:34610544.206
n:    98 pts_time:3.414553 perf_counter_ms:34610570.882
n:    99 pts_time:3.454568 perf_counter_ms:34610610.897
n:   100 pts_time:3.481244 perf_counter_ms:34610637.573
n:   101 pts_time:3.521258 perf_counter_ms:34610677.587
n:   102 pts_time:3.547934 perf_counter_ms:34610704.263
n:   103 pts_time:3.587949 perf_counter_ms:34610744.278
n:   104 pts_time:3.614625 perf_counter_ms:34610770.954
n:   105 pts_time:3.654639 perf_counter_ms:34610810.968
n:   106 pts_time:3.681315 perf_counter_ms:34610837.644
n:   107 pts_time:3.721330 perf_counter_ms:34610877.659
n:   108 pts_time:3.761344 perf_counter_ms:34610917.673
n:   109 pts_time:3.788020 perf_counter_ms:34610944.349
n:   110 pts_time:3.828034 perf_counter_ms:34610984.363
n:   111 pts_time:3.854710 perf_counter_ms:34611011.040
n:   112 pts_time:3.894725 perf_counter_ms:34611051.054
n:   113 pts_time:3.921401 perf_counter_ms:34611077.730
n:   114 pts_time:3.961415 perf_counter_ms:34611117.744
n:   115 pts_time:4.001429 perf_counter_ms:34611157.759
n:   116 pts_time:4.028106 perf_counter_ms:34611184.435
n:   117 pts_time:4.068120 perf_counter_ms:34611224.449
n:   118 pts_time:4.094796 perf_counter_ms:34611251.125
n:   119 pts_time:4.134810 perf_counter_ms:34611291.140
n:   120 pts_time:4.161487 perf_counter_ms:34611317.816
n:   121 pts_time:4.201501 perf_counter_ms:34611357.830
n:   122 pts_time:4.228177 perf_counter_ms:34611384.506
n:   123 pts_time:4.268191 perf_counter_ms:34611424.520
n:   124 pts_time:4.294867 perf_counter_ms:34611451.197
n:   125 pts_time:4.321544 perf_counter_ms:34611477.873
n:   126 pts_time:4.361558 perf_counter_ms:34611517.887
n:   127 pts_time:4.388234 perf_counter_ms:34611544.563
n:   128 pts_time:4.428248 perf_counter_ms:34611584.577
n:   129 pts_time:4.454924 perf_counter_ms:34611611.254
n:   130 pts_time:4.494939 perf_counter_ms:34611651.268
n:   131 pts_time:4.521615 perf_counter_ms:34611677.944
n:   132 pts_time:4.561629 perf_counter_ms:34611717.958
n:   133 pts_time:4.588305 perf_counter_ms:34611744.634
n:   134 pts_time:4.628319 perf_counter_ms:34611784.649
n:   135 pts_time:4.654996 perf_counter_ms:34611811.325
n:   136 pts_time:4.708348 perf_counter_ms:34611864.678
n:   137 pts_time:4.735025 perf_counter_ms:34611891.354
n:   138 pts_time:4.775039 perf_counter_ms:34611931.368
n:   139 pts_time:4.815053 perf_counter_ms:34611971.382
n:   140 pts_time:4.841729 perf_counter_ms:34611998.059
n:   141 pts_time:4.881744 perf_counter_ms:34612038.073
n:   142 pts_time:4.908420 perf_counter_ms:34612064.749
n:   143 pts_time:4.948434 perf_counter_ms:34612104.763
n:   144 pts_time:4.975110 perf_counter_ms:34612131.440
n:   145 pts_time:5.015125 perf_counter_ms:34612171.454
n:   146 pts_time:5.055139 perf_counter_ms:34612211.468
n:   147 pts_time:5.081815 perf_counter_ms:34612238.144
n:   148 pts_time:5.121829 perf_counter_ms:34612278.159
n:   149 pts_time:5.135167 perf_counter_ms:34612291.497
n:   150 pts_time:5.175182 perf_counter_ms:34612331.511
n:   151 pts_time:5.201858 perf_counter_ms:34612358.187
n:   152 pts_time:5.241872 perf_counter_ms:34612398.201
n:   153 pts_time:5.268548 perf_counter_ms:34612424.877
n:   154 pts_time:5.321901 perf_counter_ms:34612478.230
n:   155 pts_time:5.348577 perf_counter_ms:34612504.906
n:   156 pts_time:5.388591 perf_counter_ms:34612544.921
n:   157 pts_time:5.428606 perf_counter_ms:34612584.935
n:   158 pts_time:5.468620 perf_counter_ms:34612624.949
n:   159 pts_time:5.508634 perf_counter_ms:34612664.963
n:   160 pts_time:5.535310 perf_counter_ms:34612691.640
n:   161 pts_time:5.575325 perf_counter_ms:34612731.654
n:   162 pts_time:5.602001 perf_counter_ms:34612758.330
n:   163 pts_time:5.642015 perf_counter_ms:34612798.344
n:   164 pts_time:5.682030 perf_counter_ms:34612838.359
n:   165 pts_time:5.708706 perf_counter_ms:34612865.035
n:   166 pts_time:5.748720 perf_counter_ms:34612905.049
n:   167 pts_time:5.788734 perf_counter_ms:34612945.063
n:   168 pts_time:5.815411 perf_counter_ms:34612971.740
n:   169 pts_time:5.855425 perf_counter_ms:34613011.754
n:   170 pts_time:5.895439 perf_counter_ms:34613051.768
n:   171 pts_time:5.935454 perf_counter_ms:34613091.783
n:   172 pts_time:5.962130 perf_counter_ms:34613118.459
n:   173 pts_time:6.002144 perf_counter_ms:34613158.473
n:   174 pts_time:6.028820 perf_counter_ms:34613185.149
n:   175 pts_time:6.068834 perf_counter_ms:34613225.164
n:   176 pts_time:6.095511 perf_counter_ms:34613251.840
n:   177 pts_time:6.135525 perf_counter_ms:34613291.854
n:   178 pts_time:6.162201 perf_counter_ms:34613318.530
n:   179 pts_time:6.202215 perf_counter_ms:34613358.545
n:   180 pts_time:6.242230 perf_counter_ms:34613398.559
n:   181 pts_time:6.268906 perf_counter_ms:34613425.235
n:   182 pts_time:6.308920 perf_counter_ms:34613465.249
n:   183 pts_time:6.335596 perf_counter_ms:34613491.926
n:   184 pts_time:6.375611 perf_counter_ms:34613531.940
n:   185 pts_time:6.388949 perf_counter_ms:34613545.278
n:   186 pts_time:6.442301 perf_counter_ms:34613598.630
n:   187 pts_time:6.482316 perf_counter_ms:34613638.645
n:   188 pts_time:6.522330 perf_counter_ms:34613678.659
n:   189 pts_time:6.562344 perf_counter_ms:34613718.673
n:   190 pts_time:6.602358 perf_counter_ms:34613758.688
n:   191 pts_time:6.642373 perf_counter_ms:34613798.702
n:   192 pts_time:6.669049 perf_counter_ms:34613825.378
n:   193 pts_time:6.709063 perf_counter_ms:34613865.392
n:   194 pts_time:6.749077 perf_counter_ms:34613905.407
n:   195 pts_time:6.775754 perf_counter_ms:34613932.083
n:   196 pts_time:6.815768 perf_counter_ms:34613972.097
n:   197 pts_time:6.855782 perf_counter_ms:34614012.111
n:   198 pts_time:6.882458 perf_counter_ms:34614038.788
n:   199 pts_time:6.922473 perf_counter_ms:34614078.802
n:   200 pts_time:6.962487 perf_counter_ms:34614118.816
n:   201 pts_time:6.989163 perf_counter_ms:34614145.492
n:   202 pts_time:7.029178 perf_counter_ms:34614185.507
n:   203 pts_time:7.055854 perf_counter_ms:34614212.183
n:   204 pts_time:7.095868 perf_counter_ms:34614252.197
n:   205 pts_time:7.135882 perf_counter_ms:34614292.211
n:   206 pts_time:7.162558 perf_counter_ms:34614318.888
n:   207 pts_time:7.202573 perf_counter_ms:34614358.902
n:   208 pts_time:7.242587 perf_counter_ms:34614398.916
n:   209 pts_time:7.269263 perf_counter_ms:34614425.592
n:   210 pts_time:7.309278 perf_counter_ms:34614465.607
n:   211 pts_time:7.335954 perf_counter_ms:34614492.283
n:   212 pts_time:7.375968 perf_counter_ms:34614532.297
n:   213 pts_time:7.415982 perf_counter_ms:34614572.311
n:   214 pts_time:7.442658 perf_counter_ms:34614598.988
n:   215 pts_time:7.482673 perf_counter_ms:34614639.002
n:   216 pts_time:7.509349 perf_counter_ms:34614665.678
n:   217 pts_time:7.549363 perf_counter_ms:34614705.692
n:   218 pts_time:7.576039 perf_counter_ms:34614732.369
n:   219 pts_time:7.616054 perf_counter_ms:34614772.383
n:   220 pts_time:7.656068 perf_counter_ms:34614812.397
n:   221 pts_time:7.682744 perf_counter_ms:34614839.073
n:   222 pts_time:7.722758 perf_counter_ms:34614879.088
n:   223 pts_time:7.762773 perf_counter_ms:34614919.102
n:   224 pts_time:7.802787 perf_counter_ms:34614959.116
n:   225 pts_time:7.842801 perf_counter_ms:34614999.130
n:   226 pts_time:7.882816 perf_counter_ms:34615039.145
n:   227 pts_time:7.922830 perf_counter_ms:34615079.159
n:   228 pts_time:7.962844 perf_counter_ms:34615119.173
n:   229 pts_time:7.989520 perf_counter_ms:34615145.849
n:   230 pts_time:8.069549 perf_counter_ms:34615225.878
n:   231 pts_time:8.109563 perf_counter_ms:34615265.892
n:   232 pts_time:8.136239 perf_counter_ms:34615292.568
n:   233 pts_time:8.176254 perf_counter_ms:34615332.583
n:   234 pts_time:8.202930 perf_counter_ms:34615359.259
n:   235 pts_time:8.242944 perf_counter_ms:34615399.273
n:   236 pts_time:8.282958 perf_counter_ms:34615439.287
n:   237 pts_time:8.309635 perf_counter_ms:34615465.964
n:   238 pts_time:8.349649 perf_counter_ms:34615505.978
n:   239 pts_time:8.376325 perf_counter_ms:34615532.654
n:   240 pts_time:8.416339 perf_counter_ms:34615572.668
n:   241 pts_time:8.456354 perf_counter_ms:34615612.683
n:   242 pts_time:8.483030 perf_counter_ms:34615639.359
n:   243 pts_time:8.523044 perf_counter_ms:34615679.373
n:   244 pts_time:8.563058 perf_counter_ms:34615719.387
n:   245 pts_time:8.589734 perf_counter_ms:34615746.064
n:   246 pts_time:8.629749 perf_counter_ms:34615786.078
n:   247 pts_time:8.656425 perf_counter_ms:34615812.754
n:   248 pts_time:8.696439 perf_counter_ms:34615852.768
n:   249 pts_time:8.736453 perf_counter_ms:34615892.783
n:   250 pts_time:8.763130 perf_counter_ms:34615919.459
n:   251 pts_time:8.803144 perf_counter_ms:34615959.473
n:   252 pts_time:8.829820 perf_counter_ms:34615986.149
n:   253 pts_time:8.869834 perf_counter_ms:34616026.163
n:   254 pts_time:8.909849 perf_counter_ms:34616066.178
n:   255 pts_time:8.936525 perf_counter_ms:34616092.854
n:   256 pts_time:8.976539 perf_counter_ms:34616132.868
n:   257 pts_time:9.016553 perf_counter_ms:34616172.882
n:   258 pts_time:9.043229 perf_counter_ms:34616199.559
n:   259 pts_time:9.069906 perf_counter_ms:34616226.235
n:   260 pts_time:9.109920 perf_counter_ms:34616266.249
n:   261 pts_time:9.136596 perf_counter_ms:34616292.925
n:   262 pts_time:9.189948 perf_counter_ms:34616346.278
n:   263 pts_time:9.203287 perf_counter_ms:34616359.616
n:   264 pts_time:9.256639 perf_counter_ms:34616412.968
n:   265 pts_time:9.283315 perf_counter_ms:34616439.644
n:   266 pts_time:9.323329 perf_counter_ms:34616479.658
n:   267 pts_time:9.363344 perf_counter_ms:34616519.673
n:   268 pts_time:9.390020 perf_counter_ms:34616546.349
n:   269 pts_time:9.430034 perf_counter_ms:34616586.363
n:   270 pts_time:9.456710 perf_counter_ms:34616613.039
n:   271 pts_time:9.496725 perf_counter_ms:34616653.054
n:   272 pts_time:9.523401 perf_counter_ms:34616679.730
n:   273 pts_time:9.563415 perf_counter_ms:34616719.744
n:   274 pts_time:9.590091 perf_counter_ms:34616746.420
n:   275 pts_time:9.630105 perf_counter_ms:34616786.435
n:   276 pts_time:9.656781 perf_counter_ms:34616813.111
n:   277 pts_time:9.696796 perf_counter_ms:34616853.125
n:   278 pts_time:9.723472 perf_counter_ms:34616879.801
n:   279 pts_time:9.763486 perf_counter_ms:34616919.815
n:   280 pts_time:9.803500 perf_counter_ms:34616959.830
n:   281 pts_time:9.830177 perf_counter_ms:34616986.506
n:   282 pts_time:9.870191 perf_counter_ms:34617026.520
n:   283 pts_time:9.896867 perf_counter_ms:34617053.196
n:   284 pts_time:9.936881 perf_counter_ms:34617093.210
n:   285 pts_time:9.963557 perf_counter_ms:34617119.887
n:   286 pts_time:10.003572 perf_counter_ms:34617159.901
n:   287 pts_time:10.030248 perf_counter_ms:34617186.577
n:   288 pts_time:10.070262 perf_counter_ms:34617226.591
n:   289 pts_time:10.110276 perf_counter_ms:34617266.606
n:   290 pts_time:10.136953 perf_counter_ms:34617293.282
n:   291 pts_time:10.176967 perf_counter_ms:34617333.296
n:   292 pts_time:10.203643 perf_counter_ms:34617359.972
n:   293 pts_time:10.243657 perf_counter_ms:34617399.986
n:   294 pts_time:10.270333 perf_counter_ms:34617426.663
n:   295 pts_time:10.310348 perf_counter_ms:34617466.677
n:   296 pts_time:10.337024 perf_counter_ms:34617493.353
n:   297 pts_time:10.377038 perf_counter_ms:34617533.367
n:   298 pts_time:10.403714 perf_counter_ms:34617560.043
n:   299 pts_time:10.443729 perf_counter_ms:34617600.058
n:   300 pts_time:10.483743 perf_counter_ms:34617640.072
n:   301 pts_time:10.510419 perf_counter_ms:34617666.748
n:   302 pts_time:10.550433 perf_counter_ms:34617706.762
n:   303 pts_time:10.577109 perf_counter_ms:34617733.438
n:   304 pts_time:10.617124 perf_counter_ms:34617773.453
n:   305 pts_time:10.643800 perf_counter_ms:34617800.129
n:   306 pts_time:10.683814 perf_counter_ms:34617840.143
n:   307 pts_time:10.710490 perf_counter_ms:34617866.819
n:   308 pts_time:10.723828 perf_counter_ms:34617880.157
n:   309 pts_time:10.790519 perf_counter_ms:34617946.848
n:   310 pts_time:10.817195 perf_counter_ms:34617973.524
n:   311 pts_time:10.857209 perf_counter_ms:34618013.538
n:   312 pts_time:10.883885 perf_counter_ms:34618040.214
n:   313 pts_time:10.923900 perf_counter_ms:34618080.229
n:   314 pts_time:10.950576 perf_counter_ms:34618106.905
n:   315 pts_time:10.990590 perf_counter_ms:34618146.919
n:   316 pts_time:11.030604 perf_counter_ms:34618186.933
n:   317 pts_time:11.057280 perf_counter_ms:34618213.610
n:   318 pts_time:11.097295 perf_counter_ms:34618253.624
n:   319 pts_time:11.123971 perf_counter_ms:34618280.300
n:   320 pts_time:11.163985 perf_counter_ms:34618320.314
n:   321 pts_time:11.190661 perf_counter_ms:34618346.990
n:   322 pts_time:11.230676 perf_counter_ms:34618387.005
n:   323 pts_time:11.270690 perf_counter_ms:34618427.019
n:   324 pts_time:11.297366 perf_counter_ms:34618453.695
n:   325 pts_time:11.337380 perf_counter_ms:34618493.709
n:   326 pts_time:11.364056 perf_counter_ms:34618520.385
n:   327 pts_time:11.404071 perf_counter_ms:34618560.400
n:   328 pts_time:11.430747 perf_counter_ms:34618587.076
n:   329 pts_time:11.470761 perf_counter_ms:34618627.090
n:   330 pts_time:11.510775 perf_counter_ms:34618667.104
n:   331 pts_time:11.537451 perf_counter_ms:34618693.781
n:   332 pts_time:11.577466 perf_counter_ms:34618733.795
n:   333 pts_time:11.604142 perf_counter_ms:34618760.471
n:   334 pts_time:11.644156 perf_counter_ms:34618800.485
n:   335 pts_time:11.670832 perf_counter_ms:34618827.161
n:   336 pts_time:11.710846 perf_counter_ms:34618867.176
n:   337 pts_time:11.750861 perf_counter_ms:34618907.190
n:   338 pts_time:11.777537 perf_counter_ms:34618933.866
n:   339 pts_time:11.817551 perf_counter_ms:34618973.880
n:   340 pts_time:11.844227 perf_counter_ms:34619000.557
n:   341 pts_time:11.884242 perf_counter_ms:34619040.571
n:   342 pts_time:11.910918 perf_counter_ms:34619067.247
n:   343 pts_time:11.937594 perf_counter_ms:34619093.923
n:   344 pts_time:11.977608 perf_counter_ms:34619133.937
n:   345 pts_time:12.004284 perf_counter_ms:34619160.613
n:   346 pts_time:12.044299 perf_counter_ms:34619200.628
n:   347 pts_time:12.084313 perf_counter_ms:34619240.642
n:   348 pts_time:12.110989 perf_counter_ms:34619267.318
n:   349 pts_time:12.137665 perf_counter_ms:34619293.994
n:   350 pts_time:12.177679 perf_counter_ms:34619334.009
n:   351 pts_time:12.204356 perf_counter_ms:34619360.685
n:   352 pts_time:12.244370 perf_counter_ms:34619400.699
n:   353 pts_time:12.271046 perf_counter_ms:34619427.375
n:   354 pts_time:12.311060 perf_counter_ms:34619467.389
n:   355 pts_time:12.351074 perf_counter_ms:34619507.404
n:   356 pts_time:12.377751 perf_counter_ms:34619534.080
n:   357 pts_time:12.417765 perf_counter_ms:34619574.094
n:   358 pts_time:12.444441 perf_counter_ms:34619600.770
n:   359 pts_time:12.484455 perf_counter_ms:34619640.784
n:   360 pts_time:12.511131 perf_counter_ms:34619667.461
n:   361 pts_time:12.551146 perf_counter_ms:34619707.475
n:   362 pts_time:12.577822 perf_counter_ms:34619734.151
n:   363 pts_time:12.631174 perf_counter_ms:34619787.504
n:   364 pts_time:12.657851 perf_counter_ms:34619814.180
n:   365 pts_time:12.697865 perf_counter_ms:34619854.194
n:   366 pts_time:12.724541 perf_counter_ms:34619880.870
n:   367 pts_time:12.764555 perf_counter_ms:34619920.885
n:   368 pts_time:12.804570 perf_counter_ms:34619960.899
n:   369 pts_time:12.831246 perf_counter_ms:34619987.575
n:   370 pts_time:12.871260 perf_counter_ms:34620027.589
n:   371 pts_time:12.897936 perf_counter_ms:34620054.265
n:   372 pts_time:12.937950 perf_counter_ms:34620094.280
n:   373 pts_time:12.964627 perf_counter_ms:34620120.956
n:   374 pts_time:13.004641 perf_counter_ms:34620160.970
n:   375 pts_time:13.044655 perf_counter_ms:34620200.984
n:   376 pts_time:13.071331 perf_counter_ms:34620227.660
n:   377 pts_time:13.111346 perf_counter_ms:34620267.675
n:   378 pts_time:13.138022 perf_counter_ms:34620294.351
n:   379 pts_time:13.178036 perf_counter_ms:34620334.365
n:   380 pts_time:13.204712 perf_counter_ms:34620361.041
n:   381 pts_time:13.244727 perf_counter_ms:34620401.056
n:   382 pts_time:13.271403 perf_counter_ms:34620427.732
n:   383 pts_time:13.311417 perf_counter_ms:34620467.746
n:   384 pts_time:13.338093 perf_counter_ms:34620494.422
n:   385 pts_time:13.378107 perf_counter_ms:34620534.437
n:   386 pts_time:13.418122 perf_counter_ms:34620574.451
n:   387 pts_time:13.444798 perf_counter_ms:34620601.127
n:   388 pts_time:13.471474 perf_counter_ms:34620627.803
n:   389 pts_time:13.511488 perf_counter_ms:34620667.817
n:   390 pts_time:13.551503 perf_counter_ms:34620707.832
n:   391 pts_time:13.578179 perf_counter_ms:34620734.508
n:   392 pts_time:13.618193 perf_counter_ms:34620774.522
n:   393 pts_time:13.658207 perf_counter_ms:34620814.537
n:   394 pts_time:13.684884 perf_counter_ms:34620841.213
n:   395 pts_time:13.724898 perf_counter_ms:34620881.227
n:   396 pts_time:13.751574 perf_counter_ms:34620907.903
n:   397 pts_time:13.791588 perf_counter_ms:34620947.918
n:   398 pts_time:13.818265 perf_counter_ms:34620974.594
n:   399 pts_time:13.844941 perf_counter_ms:34621001.270
n:   400 pts_time:13.871617 perf_counter_ms:34621027.946
n:   401 pts_time:13.911631 perf_counter_ms:34621067.960
n:   402 pts_time:13.938307 perf_counter_ms:34621094.636
n:   403 pts_time:13.978321 perf_counter_ms:34621134.651
n:   404 pts_time:14.004998 perf_counter_ms:34621161.327
n:   405 pts_time:14.045012 perf_counter_ms:34621201.341
n:   406 pts_time:14.085026 perf_counter_ms:34621241.355
n:   407 pts_time:14.111702 perf_counter_ms:34621268.032
n:   408 pts_time:14.151717 perf_counter_ms:34621308.046
n:   409 pts_time:14.178393 perf_counter_ms:34621334.722
n:   410 pts_time:14.218407 perf_counter_ms:34621374.736
n:   411 pts_time:14.245083 perf_counter_ms:34621401.412
n:   412 pts_time:14.285098 perf_counter_ms:34621441.427
n:   413 pts_time:14.311774 perf_counter_ms:34621468.103
n:   414 pts_time:14.351788 perf_counter_ms:34621508.117
n:   415 pts_time:14.391802 perf_counter_ms:34621548.131
n:   416 pts_time:14.418478 perf_counter_ms:34621574.807
n:   417 pts_time:14.458493 perf_counter_ms:34621614.822
n:   418 pts_time:14.498507 perf_counter_ms:34621654.836
n:   419 pts_time:14.511845 perf_counter_ms:34621668.174
n:   420 pts_time:14.551859 perf_counter_ms:34621708.189
n:   421 pts_time:14.591874 perf_counter_ms:34621748.203
n:   422 pts_time:14.618550 perf_counter_ms:34621774.879
n:   423 pts_time:14.658564 perf_counter_ms:34621814.893
n:   424 pts_time:14.698578 perf_counter_ms:34621854.907
n:   425 pts_time:14.725255 perf_counter_ms:34621881.584
n:   426 pts_time:14.765269 perf_counter_ms:34621921.598
n:   427 pts_time:14.791945 perf_counter_ms:34621948.274
n:   428 pts_time:14.831959 perf_counter_ms:34621988.288
n:   429 pts_time:14.858635 perf_counter_ms:34622014.965
n:   430 pts_time:14.898650 perf_counter_ms:34622054.979
n:   431 pts_time:14.925326 perf_counter_ms:34622081.655
n:   432 pts_time:14.965340 perf_counter_ms:34622121.669
n:   433 pts_time:14.992016 perf_counter_ms:34622148.345
n:   434 pts_time:15.032030 perf_counter_ms:34622188.360
n:   435 pts_time:15.058707 perf_counter_ms:34622215.036
n:   436 pts_time:15.098721 perf_counter_ms:34622255.050
n:   437 pts_time:15.125397 perf_counter_ms:34622281.726
n:   438 pts_time:15.165411 perf_counter_ms:34622321.740
n:   439 pts_time:15.205426 perf_counter_ms:34622361.755
n:   440 pts_time:15.232102 perf_counter_ms:34622388.431
n:   441 pts_time:15.272116 perf_counter_ms:34622428.445
n:   442 pts_time:15.298792 perf_counter_ms:34622455.121
n:   443 pts_time:15.338806 perf_counter_ms:34622495.136
n:   444 pts_time:15.365483 perf_counter_ms:34622521.812
n:   445 pts_time:15.405497 perf_counter_ms:34622561.826
n:   446 pts_time:15.445511 perf_counter_ms:34622601.840
n:   447 pts_time:15.472187 perf_counter_ms:34622628.516
n:   448 pts_time:15.512202 perf_counter_ms:34622668.531
n:   449 pts_time:15.538878 perf_counter_ms:34622695.207
n:   450 pts_time:15.578893 perf_counter_ms:34622735.222
n:   451 pts_time:15.605569 perf_counter_ms:34622761.898
n:   452 pts_time:15.645583 perf_counter_ms:34622801.912
n:   453 pts_time:15.672259 perf_counter_ms:34622828.588
n:   454 pts_time:15.712273 perf_counter_ms:34622868.602
n:   455 pts_time:15.738950 perf_counter_ms:34622895.279
n:   456 pts_time:15.778964 perf_counter_ms:34622935.293
n:   457 pts_time:15.805640 perf_counter_ms:34622961.969
n:   458 pts_time:15.845654 perf_counter_ms:34623001.983
n:   459 pts_time:15.872330 perf_counter_ms:34623028.659
n:   460 pts_time:15.912345 perf_counter_ms:34623068.674
n:   461 pts_time:15.952359 perf_counter_ms:34623108.688
n:   462 pts_time:15.979035 perf_counter_ms:34623135.364
n:   463 pts_time:16.019049 perf_counter_ms:34623175.378
n:   464 pts_time:16.045725 perf_counter_ms:34623202.055
n:   465 pts_time:16.085740 perf_counter_ms:34623242.069
n:   466 pts_time:16.112416 perf_counter_ms:34623268.745
n:   467 pts_time:16.152431 perf_counter_ms:34623308.760
n:   468 pts_time:16.179107 perf_counter_ms:34623335.436
n:   469 pts_time:16.219121 perf_counter_ms:34623375.450
n:   470 pts_time:16.259135 perf_counter_ms:34623415.464
n:   471 pts_time:16.285811 perf_counter_ms:34623442.141
n:   472 pts_time:16.325826 perf_counter_ms:34623482.155
n:   473 pts_time:16.352502 perf_counter_ms:34623508.831
n:   474 pts_time:16.392516 perf_counter_ms:34623548.845
n:   475 pts_time:16.419192 perf_counter_ms:34623575.521
n:   476 pts_time:16.459206 perf_counter_ms:34623615.536
n:   477 pts_time:16.485883 perf_counter_ms:34623642.212
n:   478 pts_time:16.525897 perf_counter_ms:34623682.226
n:   479 pts_time:16.552573 perf_counter_ms:34623708.902
n:   480 pts_time:16.592587 perf_counter_ms:34623748.916
n:   481 pts_time:16.632602 perf_counter_ms:34623788.931
n:   482 pts_time:16.659278 perf_counter_ms:34623815.607
n:   483 pts_time:16.699292 perf_counter_ms:34623855.621
n:   484 pts_time:16.725968 perf_counter_ms:34623882.297
n:   485 pts_time:16.765982 perf_counter_ms:34623922.312
n:   486 pts_time:16.792659 perf_counter_ms:34623948.988
n:   487 pts_time:16.832673 perf_counter_ms:34623989.002
n:   488 pts_time:16.872687 perf_counter_ms:34624029.016
n:   489 pts_time:16.899363 perf_counter_ms:34624055.692
n:   490 pts_time:16.939377 perf_counter_ms:34624095.707
n:   491 pts_time:16.966054 perf_counter_ms:34624122.383
n:   492 pts_time:17.006068 perf_counter_ms:34624162.397
n:   493 pts_time:17.032744 perf_counter_ms:34624189.073
n:   494 pts_time:17.072758 perf_counter_ms:34624229.087
n:   495 pts_time:17.099434 perf_counter_ms:34624255.764
n:   496 pts_time:17.139449 perf_counter_ms:34624295.778
n:   497 pts_time:17.166125 perf_counter_ms:34624322.454
n:   498 pts_time:17.206139 perf_counter_ms:34624362.468
n:   499 pts_time:17.232815 perf_counter_ms:34624389.144
n:   500 pts_time:17.272830 perf_counter_ms:34624429.159
n:   501 pts_time:17.312844 perf_counter_ms:34624469.173
n:   502 pts_time:17.339520 perf_counter_ms:34624495.849
n:   503 pts_time:17.379534 perf_counter_ms:34624535.863
n:   504 pts_time:17.406211 perf_counter_ms:34624562.540
n:   505 pts_time:17.446226 perf_counter_ms:34624602.555
n:   506 pts_time:17.472902 perf_counter_ms:34624629.231
n:   507 pts_time:17.512916 perf_counter_ms:34624669.245
n:   508 pts_time:17.539592 perf_counter_ms:34624695.921
n:   509 pts_time:17.592945 perf_counter_ms:34624749.274
n:   510 pts_time:17.619621 perf_counter_ms:34624775.950
n:   511 pts_time:17.659635 perf_counter_ms:34624815.964
n:   512 pts_time:17.699650 perf_counter_ms:34624855.979
n:   513 pts_time:17.726326 perf_counter_ms:34624882.655
n:   514 pts_time:17.766340 perf_counter_ms:34624922.669
n:   515 pts_time:17.793016 perf_counter_ms:34624949.345
n:   516 pts_time:17.833030 perf_counter_ms:34624989.360
n:   517 pts_time:17.859707 perf_counter_ms:34625016.036
n:   518 pts_time:17.899721 perf_counter_ms:34625056.050
n:   519 pts_time:17.926397 perf_counter_ms:34625082.726
n:   520 pts_time:17.966411 perf_counter_ms:34625122.740
n:   521 pts_time:18.006426 perf_counter_ms:34625162.755
n:   522 pts_time:18.033102 perf_counter_ms:34625189.431
n:   523 pts_time:18.073116 perf_counter_ms:34625229.445
n:   524 pts_time:18.086454 perf_counter_ms:34625242.783
n:   525 pts_time:18.126468 perf_counter_ms:34625282.797
n:   526 pts_time:18.166483 perf_counter_ms:34625322.812
n:   527 pts_time:18.193159 perf_counter_ms:34625349.488
n:   528 pts_time:18.286525 perf_counter_ms:34625442.855
n:   529 pts_time:18.299864 perf_counter_ms:34625456.193
n:   530 pts_time:18.353216 perf_counter_ms:34625509.545
n:   531 pts_time:18.379892 perf_counter_ms:34625536.221
n:   532 pts_time:18.419906 perf_counter_ms:34625576.236
n:   533 pts_time:18.459921 perf_counter_ms:34625616.250
n:   534 pts_time:18.486597 perf_counter_ms:34625642.926
n:   535 pts_time:18.526611 perf_counter_ms:34625682.940
n:   536 pts_time:18.553287 perf_counter_ms:34625709.616
n:   537 pts_time:18.579964 perf_counter_ms:34625736.293
n:   538 pts_time:18.619978 perf_counter_ms:34625776.307
n:   539 pts_time:18.659992 perf_counter_ms:34625816.321
n:   540 pts_time:18.686668 perf_counter_ms:34625842.997
n:   541 pts_time:18.726683 perf_counter_ms:34625883.012
n:   542 pts_time:18.753359 perf_counter_ms:34625909.688
n:   543 pts_time:18.793373 perf_counter_ms:34625949.702
n:   544 pts_time:18.833387 perf_counter_ms:34625989.717
n:   545 pts_time:18.860063 perf_counter_ms:34626016.393
n:   546 pts_time:18.900078 perf_counter_ms:34626056.407
n:   547 pts_time:18.926754 perf_counter_ms:34626083.083
n:   548 pts_time:18.966768 perf_counter_ms:34626123.097
n:   549 pts_time:18.993444 perf_counter_ms:34626149.774
n:   550 pts_time:19.033459 perf_counter_ms:34626189.788
n:   551 pts_time:19.060135 perf_counter_ms:34626216.464
n:   552 pts_time:19.086811 perf_counter_ms:34626243.140
n:   553 pts_time:19.126825 perf_counter_ms:34626283.155
n:   554 pts_time:19.166840 perf_counter_ms:34626323.169
n:   555 pts_time:19.206854 perf_counter_ms:34626363.183
n:   556 pts_time:19.233530 perf_counter_ms:34626389.859
n:   557 pts_time:19.273544 perf_counter_ms:34626429.874
n:   558 pts_time:19.300221 perf_counter_ms:34626456.550
n:   559 pts_time:19.353573 perf_counter_ms:34626509.902
n:   560 pts_time:19.380249 perf_counter_ms:34626536.578
n:   561 pts_time:19.406925 perf_counter_ms:34626563.254
n:   562 pts_time:19.446940 perf_counter_ms:34626603.269
n:   563 pts_time:19.486954 perf_counter_ms:34626643.283
n:   564 pts_time:19.513630 perf_counter_ms:34626669.959
n:   565 pts_time:19.553644 perf_counter_ms:34626709.974
n:   566 pts_time:19.606997 perf_counter_ms:34626763.326
n:   567 pts_time:19.633673 perf_counter_ms:34626790.002
n:   568 pts_time:19.687025 perf_counter_ms:34626843.354
n:   569 pts_time:19.713701 perf_counter_ms:34626870.031
n:   570 pts_time:19.753716 perf_counter_ms:34626910.045
n:   571 pts_time:19.793730 perf_counter_ms:34626950.059
n:   572 pts_time:19.820406 perf_counter_ms:34626976.735
n:   573 pts_time:19.860420 perf_counter_ms:34627016.750
n:   574 pts_time:19.900435 perf_counter_ms:34627056.764
n:   575 pts_time:19.927111 perf_counter_ms:34627083.440
n:   576 pts_time:19.967125 perf_counter_ms:34627123.454
n:   577 pts_time:19.993801 perf_counter_ms:34627150.131
n:   578 pts_time:20.033816 perf_counter_ms:34627190.145
n:   579 pts_time:20.073830 perf_counter_ms:34627230.159
n:   580 pts_time:20.100506 perf_counter_ms:34627256.835
n:   581 pts_time:20.140521 perf_counter_ms:34627296.850
n:   582 pts_time:20.167197 perf_counter_ms:34627323.526
n:   583 pts_time:20.207211 perf_counter_ms:34627363.540
n:   584 pts_time:20.233887 perf_counter_ms:34627390.216
n:   585 pts_time:20.273901 perf_counter_ms:34627430.231
n:   586 pts_time:20.300578 perf_counter_ms:34627456.907
n:   587 pts_time:20.340592 perf_counter_ms:34627496.921
n:   588 pts_time:20.380606 perf_counter_ms:34627536.935
n:   589 pts_time:20.407282 perf_counter_ms:34627563.611
n:   590 pts_time:20.447297 perf_counter_ms:34627603.626
n:   591 pts_time:20.487311 perf_counter_ms:34627643.640
n:   592 pts_time:20.513987 perf_counter_ms:34627670.316
n:   593 pts_time:20.554001 perf_counter_ms:34627710.331
n:   594 pts_time:20.580678 perf_counter_ms:34627737.007
n:   595 pts_time:20.620692 perf_counter_ms:34627777.021
n:   596 pts_time:20.647368 perf_counter_ms:34627803.697
n:   597 pts_time:20.687382 perf_counter_ms:34627843.711
n:   598 pts_time:20.727397 perf_counter_ms:34627883.726
n:   599 pts_time:20.754073 perf_counter_ms:34627910.402
n:   600 pts_time:20.794087 perf_counter_ms:34627950.416
n:   601 pts_time:20.834101 perf_counter_ms:34627990.430
n:   602 pts_time:20.860777 perf_counter_ms:34628017.107
n:   603 pts_time:20.900792 perf_counter_ms:34628057.121
n:   604 pts_time:20.927468 perf_counter_ms:34628083.797
n:   605 pts_time:20.967482 perf_counter_ms:34628123.811
n:   606 pts_time:21.007497 perf_counter_ms:34628163.826
n:   607 pts_time:21.034173 perf_counter_ms:34628190.502
n:   608 pts_time:21.074187 perf_counter_ms:34628230.516
n:   609 pts_time:21.100863 perf_counter_ms:34628257.192
n:   610 pts_time:21.140877 perf_counter_ms:34628297.207
n:   611 pts_time:21.194230 perf_counter_ms:34628350.559
n:   612 pts_time:21.220906 perf_counter_ms:34628377.235
n:   613 pts_time:21.260920 perf_counter_ms:34628417.249
n:   614 pts_time:21.300935 perf_counter_ms:34628457.264
n:   615 pts_time:21.340949 perf_counter_ms:34628497.278
n:   616 pts_time:21.367625 perf_counter_ms:34628523.954
n:   617 pts_time:21.407639 perf_counter_ms:34628563.968
n:   618 pts_time:21.447654 perf_counter_ms:34628603.983
n:   619 pts_time:21.474330 perf_counter_ms:34628630.659
n:   620 pts_time:21.514344 perf_counter_ms:34628670.673
n:   621 pts_time:21.541020 perf_counter_ms:34628697.349
n:   622 pts_time:21.581034 perf_counter_ms:34628737.364
n:   623 pts_time:21.607711 perf_counter_ms:34628764.040
n:   624 pts_time:21.647725 perf_counter_ms:34628804.054
n:   625 pts_time:21.687739 perf_counter_ms:34628844.068
n:   626 pts_time:21.727754 perf_counter_ms:34628884.083
n:   627 pts_time:21.767768 perf_counter_ms:34628924.097
n:   628 pts_time:21.807782 perf_counter_ms:34628964.111
n:   629 pts_time:21.847796 perf_counter_ms:34629004.125
n:   630 pts_time:21.874472 perf_counter_ms:34629030.802
n:   631 pts_time:21.914487 perf_counter_ms:34629070.816
n:   632 pts_time:21.941163 perf_counter_ms:34629097.492
n:   633 pts_time:21.981177 perf_counter_ms:34629137.506
n:   634 pts_time:22.007853 perf_counter_ms:34629164.182
n:   635 pts_time:22.047868 perf_counter_ms:34629204.197
n:   636 pts_time:22.087882 perf_counter_ms:34629244.211
n:   637 pts_time:22.127896 perf_counter_ms:34629284.225
n:   638 pts_time:22.154572 perf_counter_ms:34629310.901
n:   639 pts_time:22.194587 perf_counter_ms:34629350.916
n:   640 pts_time:22.234601 perf_counter_ms:34629390.930
n:   641 pts_time:22.261277 perf_counter_ms:34629417.606
n:   642 pts_time:22.301291 perf_counter_ms:34629457.620
n:   643 pts_time:22.327967 perf_counter_ms:34629484.297
n:   644 pts_time:22.367982 perf_counter_ms:34629524.311
n:   645 pts_time:22.407996 perf_counter_ms:34629564.325
n:   646 pts_time:22.434672 perf_counter_ms:34629591.001
n:   647 pts_time:22.474686 perf_counter_ms:34629631.016
n:   648 pts_time:22.514701 perf_counter_ms:34629671.030
n:   649 pts_time:22.541377 perf_counter_ms:34629697.706
n:   650 pts_time:22.581391 perf_counter_ms:34629737.720
n:   651 pts_time:22.608067 perf_counter_ms:34629764.396
n:   652 pts_time:22.648082 perf_counter_ms:34629804.411
n:   653 pts_time:22.688096 perf_counter_ms:34629844.425
n:   654 pts_time:22.701434 perf_counter_ms:34629857.763
n:   655 pts_time:22.754786 perf_counter_ms:34629911.115
n:   656 pts_time:22.781462 perf_counter_ms:34629937.791
n:   657 pts_time:22.821477 perf_counter_ms:34629977.806
n:   658 pts_time:22.848153 perf_counter_ms:34630004.482
n:   659 pts_time:22.888167 perf_counter_ms:34630044.496
n:   660 pts_time:22.914843 perf_counter_ms:34630071.172
n:   661 pts_time:22.954857 perf_counter_ms:34630111.187
n:   662 pts_time:22.981534 perf_counter_ms:34630137.863
n:   663 pts_time:23.021548 perf_counter_ms:34630177.877
n:   664 pts_time:23.061562 perf_counter_ms:34630217.891
n:   665 pts_time:23.088238 perf_counter_ms:34630244.567
n:   666 pts_time:23.114914 perf_counter_ms:34630271.244
n:   667 pts_time:23.141590 perf_counter_ms:34630297.920
n:   668 pts_time:23.181605 perf_counter_ms:34630337.934
n:   669 pts_time:23.208281 perf_counter_ms:34630364.610
n:   670 pts_time:23.248295 perf_counter_ms:34630404.624
n:   671 pts_time:23.274971 perf_counter_ms:34630431.300
n:   672 pts_time:23.314986 perf_counter_ms:34630471.315
n:   673 pts_time:23.355000 perf_counter_ms:34630511.329
n:   674 pts_time:23.381676 perf_counter_ms:34630538.005
n:   675 pts_time:23.421690 perf_counter_ms:34630578.019
n:   676 pts_time:23.448366 perf_counter_ms:34630604.696
n:   677 pts_time:23.488381 perf_counter_ms:34630644.710
n:   678 pts_time:23.515057 perf_counter_ms:34630671.386
n:   679 pts_time:23.555071 perf_counter_ms:34630711.400
n:   680 pts_time:23.581747 perf_counter_ms:34630738.076
n:   681 pts_time:23.621761 perf_counter_ms:34630778.091
n:   682 pts_time:23.648438 perf_counter_ms:34630804.767
n:   683 pts_time:23.688452 perf_counter_ms:34630844.781
n:   684 pts_time:23.728466 perf_counter_ms:34630884.795
n:   685 pts_time:23.755142 perf_counter_ms:34630911.471
n:   686 pts_time:23.795157 perf_counter_ms:34630951.486
n:   687 pts_time:23.821833 perf_counter_ms:34630978.162
n:   688 pts_time:23.888523 perf_counter_ms:34631044.852
n:   689 pts_time:23.901861 perf_counter_ms:34631058.190
n:   690 pts_time:23.941875 perf_counter_ms:34631098.204
n:   691 pts_time:23.981889 perf_counter_ms:34631138.219
n:   692 pts_time:24.048580 perf_counter_ms:34631204.909
n:   693 pts_time:24.088594 perf_counter_ms:34631244.923
n:   694 pts_time:24.128609 perf_counter_ms:34631284.938
n:   695 pts_time:24.155285 perf_counter_ms:34631311.614
n:   696 pts_time:24.195299 perf_counter_ms:34631351.628
n:   697 pts_time:24.221975 perf_counter_ms:34631378.304
n:   698 pts_time:24.261989 perf_counter_ms:34631418.319
n:   699 pts_time:24.288665 perf_counter_ms:34631444.995
n:   700 pts_time:24.328680 perf_counter_ms:34631485.009
n:   701 pts_time:24.355356 perf_counter_ms:34631511.685
n:   702 pts_time:24.395370 perf_counter_ms:34631551.699
n:   703 pts_time:24.435384 perf_counter_ms:34631591.713
n:   704 pts_time:24.488737 perf_counter_ms:34631645.066
n:   705 pts_time:24.515413 perf_counter_ms:34631671.742
n:   706 pts_time:24.555427 perf_counter_ms:34631711.756
n:   707 pts_time:24.595441 perf_counter_ms:34631751.770
n:   708 pts_time:24.635456 perf_counter_ms:34631791.785
n:   709 pts_time:24.675470 perf_counter_ms:34631831.799
n:   710 pts_time:24.702146 perf_counter_ms:34631858.475
n:   711 pts_time:24.742160 perf_counter_ms:34631898.489
n:   712 pts_time:24.782174 perf_counter_ms:34631938.503
n:   713 pts_time:24.808851 perf_counter_ms:34631965.180
n:   714 pts_time:24.835527 perf_counter_ms:34631991.856
n:   715 pts_time:24.875541 perf_counter_ms:34632031.870
n:   716 pts_time:24.915555 perf_counter_ms:34632071.884
n:   717 pts_time:24.955569 perf_counter_ms:34632111.899
n:   718 pts_time:24.995584 perf_counter_ms:34632151.913
n:   719 pts_time:25.035598 perf_counter_ms:34632191.927
n:   720 pts_time:25.075612 perf_counter_ms:34632231.941
n:   721 pts_time:25.115626 perf_counter_ms:34632271.956
n:   722 pts_time:25.155641 perf_counter_ms:34632311.970
n:   723 pts_time:25.182317 perf_counter_ms:34632338.646
n:   724 pts_time:25.222331 perf_counter_ms:34632378.660
n:   725 pts_time:25.249007 perf_counter_ms:34632405.336
n:   726 pts_time:25.289022 perf_counter_ms:34632445.351
n:   727 pts_time:25.315698 perf_counter_ms:34632472.027
n:   728 pts_time:25.355712 perf_counter_ms:34632512.041
n:   729 pts_time:25.395726 perf_counter_ms:34632552.055
n:   730 pts_time:25.422402 perf_counter_ms:34632578.731
n:   731 pts_time:25.462417 perf_counter_ms:34632618.746
n:   732 pts_time:25.489093 perf_counter_ms:34632645.422
n:   733 pts_time:25.529107 perf_counter_ms:34632685.436
n:   734 pts_time:25.569121 perf_counter_ms:34632725.450
n:   735 pts_time:25.595797 perf_counter_ms:34632752.127
n:   736 pts_time:25.635812 perf_counter_ms:34632792.141
n:   737 pts_time:25.662488 perf_counter_ms:34632818.817
n:   738 pts_time:25.702502 perf_counter_ms:34632858.831
n:   739 pts_time:25.742516 perf_counter_ms:34632898.845
n:   740 pts_time:25.769193 perf_counter_ms:34632925.522
n:   741 pts_time:25.809207 perf_counter_ms:34632965.536
n:   742 pts_time:25.835883 perf_counter_ms:34632992.212
n:   743 pts_time:25.875897 perf_counter_ms:34633032.226
n:   744 pts_time:25.915912 perf_counter_ms:34633072.241
n:   745 pts_time:25.942588 perf_counter_ms:34633098.917
n:   746 pts_time:25.969264 perf_counter_ms:34633125.593
n:   747 pts_time:26.009278 perf_counter_ms:34633165.607
n:   748 pts_time:26.049292 perf_counter_ms:34633205.621
n:   749 pts_time:26.089307 perf_counter_ms:34633245.636
n:   750 pts_time:26.115983 perf_counter_ms:34633272.312
n:   751 pts_time:26.155997 perf_counter_ms:34633312.326
n:   752 pts_time:26.182673 perf_counter_ms:34633339.002
n:   753 pts_time:26.222687 perf_counter_ms:34633379.016
n:   754 pts_time:26.249363 perf_counter_ms:34633405.693
n:   755 pts_time:26.289378 perf_counter_ms:34633445.707
n:   756 pts_time:26.316054 perf_counter_ms:34633472.383
n:   757 pts_time:26.342730 perf_counter_ms:34633499.059
n:   758 pts_time:26.382744 perf_counter_ms:34633539.073
n:   759 pts_time:26.409420 perf_counter_ms:34633565.749
n:   760 pts_time:26.449434 perf_counter_ms:34633605.763
n:   761 pts_time:26.476110 perf_counter_ms:34633632.439
n:   762 pts_time:26.502787 perf_counter_ms:34633659.116
n:   763 pts_time:26.542801 perf_counter_ms:34633699.130
n:   764 pts_time:26.582815 perf_counter_ms:34633739.145
n:   765 pts_time:26.609492 perf_counter_ms:34633765.821
n:   766 pts_time:26.649506 perf_counter_ms:34633805.835
n:   767 pts_time:26.676182 perf_counter_ms:34633832.511
n:   768 pts_time:26.716196 perf_counter_ms:34633872.525
n:   769 pts_time:26.742873 perf_counter_ms:34633899.202
n:   770 pts_time:26.782887 perf_counter_ms:34633939.216
n:   771 pts_time:26.822901 perf_counter_ms:34633979.230
n:   772 pts_time:26.849577 perf_counter_ms:34634005.906
n:   773 pts_time:26.889591 perf_counter_ms:34634045.921
n:   774 pts_time:26.916268 perf_counter_ms:34634072.597
n:   775 pts_time:26.956282 perf_counter_ms:34634112.611
n:   776 pts_time:26.982958 perf_counter_ms:34634139.287
n:   777 pts_time:27.022972 perf_counter_ms:34634179.301
n:   778 pts_time:27.049648 perf_counter_ms:34634205.977
n:   779 pts_time:27.089662 perf_counter_ms:34634245.992
n:   780 pts_time:27.116339 perf_counter_ms:34634272.668
n:   781 pts_time:27.156353 perf_counter_ms:34634312.682
n:   782 pts_time:27.183029 perf_counter_ms:34634339.358
n:   783 pts_time:27.223043 perf_counter_ms:34634379.372
n:   784 pts_time:27.249719 perf_counter_ms:34634406.048
n:   785 pts_time:27.289733 perf_counter_ms:34634446.062
n:   786 pts_time:27.329747 perf_counter_ms:34634486.076
n:   787 pts_time:27.356423 perf_counter_ms:34634512.752
n:   788 pts_time:27.396437 perf_counter_ms:34634552.767
n:   789 pts_time:27.423114 perf_counter_ms:34634579.443
n:   790 pts_time:27.463128 perf_counter_ms:34634619.457
n:   791 pts_time:27.489804 perf_counter_ms:34634646.133
n:   792 pts_time:27.529818 perf_counter_ms:34634686.147
n:   793 pts_time:27.556494 perf_counter_ms:34634712.823
n:   794 pts_time:27.596508 perf_counter_ms:34634752.837
n:   795 pts_time:27.636522 perf_counter_ms:34634792.851
n:   796 pts_time:27.663198 perf_counter_ms:34634819.527
n:   797 pts_time:27.703212 perf_counter_ms:34634859.542
n:   798 pts_time:27.729888 perf_counter_ms:34634886.218
n:   799 pts_time:27.769903 perf_counter_ms:34634926.232
n:   800 pts_time:27.796579 perf_counter_ms:34634952.908
n:   801 pts_time:27.836593 perf_counter_ms:34634992.922
n:   802 pts_time:27.863269 perf_counter_ms:34635019.598
n:   803 pts_time:27.903283 perf_counter_ms:34635059.612
n:   804 pts_time:27.929959 perf_counter_ms:34635086.288
n:   805 pts_time:27.969973 perf_counter_ms:34635126.302
n:   806 pts_time:28.009987 perf_counter_ms:34635166.316
n:   807 pts_time:28.036663 perf_counter_ms:34635192.993
n:   808 pts_time:28.076678 perf_counter_ms:34635233.007
n:   809 pts_time:28.103354 perf_counter_ms:34635259.683
n:   810 pts_time:28.143368 perf_counter_ms:34635299.697
n:   811 pts_time:28.170044 perf_counter_ms:34635326.373
n:   812 pts_time:28.210058 perf_counter_ms:34635366.387
n:   813 pts_time:28.236734 perf_counter_ms:34635393.063
n:   814 pts_time:28.276748 perf_counter_ms:34635433.077
n:   815 pts_time:28.316762 perf_counter_ms:34635473.091
n:   816 pts_time:28.343438 perf_counter_ms:34635499.767
n:   817 pts_time:28.383452 perf_counter_ms:34635539.782
n:   818 pts_time:28.410129 perf_counter_ms:34635566.458
n:   819 pts_time:28.450143 perf_counter_ms:34635606.472
n:   820 pts_time:28.476819 perf_counter_ms:34635633.148
n:   821 pts_time:28.516833 perf_counter_ms:34635673.162
n:   822 pts_time:28.543509 perf_counter_ms:34635699.838
n:   823 pts_time:28.583523 perf_counter_ms:34635739.852
n:   824 pts_time:28.610199 perf_counter_ms:34635766.528
n:   825 pts_time:28.650213 perf_counter_ms:34635806.542
n:   826 pts_time:28.676889 perf_counter_ms:34635833.219
n:   827 pts_time:28.716904 perf_counter_ms:34635873.233
n:   828 pts_time:28.756918 perf_counter_ms:34635913.247
n:   829 pts_time:28.783594 perf_counter_ms:34635939.923
n:   830 pts_time:28.823608 perf_counter_ms:34635979.937
n:   831 pts_time:28.850284 perf_counter_ms:34636006.613
n:   832 pts_time:28.890298 perf_counter_ms:34636046.627
n:   833 pts_time:28.916974 perf_counter_ms:34636073.303
n:   834 pts_time:28.956988 perf_counter_ms:34636113.317
n:   835 pts_time:28.983664 perf_counter_ms:34636139.994
n:   836 pts_time:29.023679 perf_counter_ms:34636180.008
n:   837 pts_time:29.063693 perf_counter_ms:34636220.022
n:   838 pts_time:29.090369 perf_counter_ms:34636246.698
n:   839 pts_time:29.130383 perf_counter_ms:34636286.712
n:   840 pts_time:29.157059 perf_counter_ms:34636313.388
n:   841 pts_time:29.223749 perf_counter_ms:34636380.078
n:   842 pts_time:29.237093 perf_counter_ms:34636393.423
n:   843 pts_time:29.277108 perf_counter_ms:34636433.437
n:   844 pts_time:29.303784 perf_counter_ms:34636460.113
n:   845 pts_time:29.343798 perf_counter_ms:34636500.127
n:   846 pts_time:29.370474 perf_counter_ms:34636526.803
n:   847 pts_time:29.410488 perf_counter_ms:34636566.817
n:   848 pts_time:29.437164 perf_counter_ms:34636593.493
n:   849 pts_time:29.477178 perf_counter_ms:34636633.507
n:   850 pts_time:29.517192 perf_counter_ms:34636673.521
n:   851 pts_time:29.543868 perf_counter_ms:34636700.198
n:   852 pts_time:29.583883 perf_counter_ms:34636740.212
n:   853 pts_time:29.610559 perf_counter_ms:34636766.888
n:   854 pts_time:29.650573 perf_counter_ms:34636806.902
n:   855 pts_time:29.677249 perf_counter_ms:34636833.578
n:   856 pts_time:29.717263 perf_counter_ms:34636873.592
n:   857 pts_time:29.743939 perf_counter_ms:34636900.268
n:   858 pts_time:29.783953 perf_counter_ms:34636940.282
n:   859 pts_time:29.810629 perf_counter_ms:34636966.958
n:   860 pts_time:29.850643 perf_counter_ms:34637006.973
n:   861 pts_time:29.890658 perf_counter_ms:34637046.987
n:   862 pts_time:29.917334 perf_counter_ms:34637073.663
n:   863 pts_time:29.957348 perf_counter_ms:34637113.677
n:   864 pts_time:29.984024 perf_counter_ms:34637140.353
n:   865 pts_time:30.024038 perf_counter_ms:34637180.367
n:   866 pts_time:30.050714 perf_counter_ms:34637207.043
n:   867 pts_time:30.077390 perf_counter_ms:34637233.719
n:   868 pts_time:30.117407 perf_counter_ms:34637273.736
n:   869 pts_time:30.144084 perf_counter_ms:34637300.413
n:   870 pts_time:30.184098 perf_counter_ms:34637340.427
n:   871 pts_time:30.224112 perf_counter_ms:34637380.441
n:   872 pts_time:30.264126 perf_counter_ms:34637420.455
n:   873 pts_time:30.304141 perf_counter_ms:34637460.470
n:   874 pts_time:30.330817 perf_counter_ms:34637487.146
n:   875 pts_time:30.357493 perf_counter_ms:34637513.822
n:   876 pts_time:30.397507 perf_counter_ms:34637553.836
n:   877 pts_time:30.424183 perf_counter_ms:34637580.512
n:   878 pts_time:30.477536 perf_counter_ms:34637633.865
n:   879 pts_time:30.504212 perf_counter_ms:34637660.541
n:   880 pts_time:30.544226 perf_counter_ms:34637700.555
n:   881 pts_time:30.570902 perf_counter_ms:34637727.232
n:   882 pts_time:30.610917 perf_counter_ms:34637767.246
n:   883 pts_time:30.637593 perf_counter_ms:34637793.922
n:   884 pts_time:30.650931 perf_counter_ms:34637807.260
n:   885 pts_time:30.704283 perf_counter_ms:34637860.612
n:   886 pts_time:30.730959 perf_counter_ms:34637887.288
n:   887 pts_time:30.770974 perf_counter_ms:34637927.303
n:   888 pts_time:30.810988 perf_counter_ms:34637967.317
n:   889 pts_time:30.837664 perf_counter_ms:34637993.993
n:   890 pts_time:30.891017 perf_counter_ms:34638047.346
n:   891 pts_time:30.904355 perf_counter_ms:34638060.684
n:   892 pts_time:30.957707 perf_counter_ms:34638114.036
n:   893 pts_time:30.984383 perf_counter_ms:34638140.712
n:   894 pts_time:31.011059 perf_counter_ms:34638167.388
n:   895 pts_time:31.051074 perf_counter_ms:34638207.403
n:   896 pts_time:31.077750 perf_counter_ms:34638234.079
n:   897 pts_time:31.131102 perf_counter_ms:34638287.431
n:   898 pts_time:31.157778 perf_counter_ms:34638314.107
n:   899 pts_time:31.184454 perf_counter_ms:34638340.784
n:   900 pts_time:31.224469 perf_counter_ms:34638380.798
n:   901 pts_time:31.251145 perf_counter_ms:34638407.474
n:   902 pts_time:31.291159 perf_counter_ms:34638447.488
n:   903 pts_time:31.317835 perf_counter_ms:34638474.164
n:   904 pts_time:31.357850 perf_counter_ms:34638514.179
n:   905 pts_time:31.397864 perf_counter_ms:34638554.193
n:   906 pts_time:31.424540 perf_counter_ms:34638580.869
n:   907 pts_time:31.477892 perf_counter_ms:34638634.222
n:   908 pts_time:31.504569 perf_counter_ms:34638660.898
n:   909 pts_time:31.544583 perf_counter_ms:34638700.912
n:   910 pts_time:31.571259 perf_counter_ms:34638727.588
n:   911 pts_time:31.611273 perf_counter_ms:34638767.603
n:   912 pts_time:31.637950 perf_counter_ms:34638794.279
n:   913 pts_time:31.677964 perf_counter_ms:34638834.293
n:   914 pts_time:31.704640 perf_counter_ms:34638860.969
n:   915 pts_time:31.744654 perf_counter_ms:34638900.984
n:   916 pts_time:31.771331 perf_counter_ms:34638927.660
n:   917 pts_time:31.811345 perf_counter_ms:34638967.674
n:   918 pts_time:31.824683 perf_counter_ms:34638981.012
n:   919 pts_time:31.864697 perf_counter_ms:34639021.026
n:   920 pts_time:31.904711 perf_counter_ms:34639061.040
n:   921 pts_time:31.931388 perf_counter_ms:34639087.717
n:   922 pts_time:31.998078 perf_counter_ms:34639154.407
n:   923 pts_time:32.024754 perf_counter_ms:34639181.083
n:   924 pts_time:32.078107 perf_counter_ms:34639234.436
n:   925 pts_time:32.118121 perf_counter_ms:34639274.450
n:   926 pts_time:32.158135 perf_counter_ms:34639314.464
n:   927 pts_time:32.184811 perf_counter_ms:34639341.141
n:   928 pts_time:32.224826 perf_counter_ms:34639381.155
n:   929 pts_time:32.251502 perf_counter_ms:34639407.831
n:   930 pts_time:32.278178 perf_counter_ms:34639434.507
n:   931 pts_time:32.318192 perf_counter_ms:34639474.521
n:   932 pts_time:32.358206 perf_counter_ms:34639514.536
n:   933 pts_time:32.398221 perf_counter_ms:34639554.550
n:   934 pts_time:32.424897 perf_counter_ms:34639581.226
n:   935 pts_time:32.464911 perf_counter_ms:34639621.240
n:   936 pts_time:32.491587 perf_counter_ms:34639647.916
n:   937 pts_time:32.531602 perf_counter_ms:34639687.931
n:   938 pts_time:32.571616 perf_counter_ms:34639727.945
n:   939 pts_time:32.598292 perf_counter_ms:34639754.621
n:   940 pts_time:32.638306 perf_counter_ms:34639794.635
n:   941 pts_time:32.664982 perf_counter_ms:34639821.312
n:   942 pts_time:32.704997 perf_counter_ms:34639861.326
n:   943 pts_time:32.745011 perf_counter_ms:34639901.340
n:   944 pts_time:32.771687 perf_counter_ms:34639928.016
n:   945 pts_time:32.811701 perf_counter_ms:34639968.031
n:   946 pts_time:32.838378 perf_counter_ms:34639994.707
n:   947 pts_time:32.878392 perf_counter_ms:34640034.721
n:   948 pts_time:32.918406 perf_counter_ms:34640074.735
n:   949 pts_time:32.945082 perf_counter_ms:34640101.411
n:   950 pts_time:32.985097 perf_counter_ms:34640141.426
n:   951 pts_time:33.011773 perf_counter_ms:34640168.102
n:   952 pts_time:33.051787 perf_counter_ms:34640208.116
n:   953 pts_time:33.078463 perf_counter_ms:34640234.792
n:   954 pts_time:33.118477 perf_counter_ms:34640274.806
n:   955 pts_time:33.158492 perf_counter_ms:34640314.821
n:   956 pts_time:33.198506 perf_counter_ms:34640354.835
n:   957 pts_time:33.225182 perf_counter_ms:34640381.511
n:   958 pts_time:33.265196 perf_counter_ms:34640421.525
n:   959 pts_time:33.291872 perf_counter_ms:34640448.202
n:   960 pts_time:33.331887 perf_counter_ms:34640488.216
n:   961 pts_time:33.358563 perf_counter_ms:34640514.892
n:   962 pts_time:33.398577 perf_counter_ms:34640554.906
n:   963 pts_time:33.438591 perf_counter_ms:34640594.920
n:   964 pts_time:33.465268 perf_counter_ms:34640621.597
n:   965 pts_time:33.505282 perf_counter_ms:34640661.611
n:   966 pts_time:33.531958 perf_counter_ms:34640688.287
n:   967 pts_time:33.571972 perf_counter_ms:34640728.301
n:   968 pts_time:33.585310 perf_counter_ms:34640741.639
n:   969 pts_time:33.625324 perf_counter_ms:34640781.654
n:   970 pts_time:33.665339 perf_counter_ms:34640821.668
n:   971 pts_time:33.692015 perf_counter_ms:34640848.344
n:   972 pts_time:33.732029 perf_counter_ms:34640888.358
n:   973 pts_time:33.758705 perf_counter_ms:34640915.034
n:   974 pts_time:33.798719 perf_counter_ms:34640955.049
n:   975 pts_time:33.825396 perf_counter_ms:34640981.725
n:   976 pts_time:33.865410 perf_counter_ms:34641021.739
n:   977 pts_time:33.905424 perf_counter_ms:34641061.753
n:   978 pts_time:33.932100 perf_counter_ms:34641088.429
n:   979 pts_time:33.972115 perf_counter_ms:34641128.444
n:   980 pts_time:33.998791 perf_counter_ms:34641155.120
n:   981 pts_time:34.038805 perf_counter_ms:34641195.134
n:   982 pts_time:34.065481 perf_counter_ms:34641221.810
n:   983 pts_time:34.105495 perf_counter_ms:34641261.825
n:   984 pts_time:34.132172 perf_counter_ms:34641288.501
n:   985 pts_time:34.172186 perf_counter_ms:34641328.515
n:   986 pts_time:34.212200 perf_counter_ms:34641368.529
n:   987 pts_time:34.238876 perf_counter_ms:34641395.205
n:   988 pts_time:34.278890 perf_counter_ms:34641435.220
n:   989 pts_time:34.305567 perf_counter_ms:34641461.896
n:   990 pts_time:34.345581 perf_counter_ms:34641501.910
n:   991 pts_time:34.372257 perf_counter_ms:34641528.586
n:   992 pts_time:34.412271 perf_counter_ms:34641568.600
n:   993 pts_time:34.438947 perf_counter_ms:34641595.277
n:   994 pts_time:34.478962 perf_counter_ms:34641635.291
n:   995 pts_time:34.518976 perf_counter_ms:34641675.305
n:   996 pts_time:34.558990 perf_counter_ms:34641715.319
n:   997 pts_time:34.599004 perf_counter_ms:34641755.333
n:   998 pts_time:34.625681 perf_counter_ms:34641782.010
n:   999 pts_time:34.665695 perf_counter_ms:34641822.024
n:  1000 pts_time:34.692371 perf_counter_ms:34641848.700
n:  1001 pts_time:34.732385 perf_counter_ms:34641888.714
n:  1002 pts_time:34.759061 perf_counter_ms:34641915.390
n:  1003 pts_time:34.799076 perf_counter_ms:34641955.405
n:  1004 pts_time:34.825752 perf_counter_ms:34641982.081
n:  1005 pts_time:34.865766 perf_counter_ms:34642022.095
n:  1006 pts_time:34.892442 perf_counter_ms:34642048.771
n:  1007 pts_time:34.932456 perf_counter_ms:34642088.786
n:  1008 pts_time:34.972471 perf_counter_ms:34642128.800
n:  1009 pts_time:34.999147 perf_counter_ms:34642155.476
n:  1010 pts_time:35.039161 perf_counter_ms:34642195.490
n:  1011 pts_time:35.065837 perf_counter_ms:34642222.166
n:  1012 pts_time:35.105851 perf_counter_ms:34642262.181
n:  1013 pts_time:35.132528 perf_counter_ms:34642288.857
n:  1014 pts_time:35.172542 perf_counter_ms:34642328.871
n:  1015 pts_time:35.199218 perf_counter_ms:34642355.547
n:  1016 pts_time:35.239232 perf_counter_ms:34642395.561
n:  1017 pts_time:35.279247 perf_counter_ms:34642435.576
n:  1018 pts_time:35.305923 perf_counter_ms:34642462.252
n:  1019 pts_time:35.319261 perf_counter_ms:34642475.590
n:  1020 pts_time:35.359275 perf_counter_ms:34642515.604
n:  1021 pts_time:35.412627 perf_counter_ms:34642568.957
n:  1022 pts_time:35.439304 perf_counter_ms:34642595.633
n:  1023 pts_time:35.479318 perf_counter_ms:34642635.647
n:  1024 pts_time:35.519332 perf_counter_ms:34642675.661
n:  1025 pts_time:35.546008 perf_counter_ms:34642702.337
n:  1026 pts_time:35.586022 perf_counter_ms:34642742.352
n:  1027 pts_time:35.612699 perf_counter_ms:34642769.028
n:  1028 pts_time:35.652713 perf_counter_ms:34642809.042
n:  1029 pts_time:35.679389 perf_counter_ms:34642835.718
n:  1030 pts_time:35.706065 perf_counter_ms:34642862.394
n:  1031 pts_time:35.746080 perf_counter_ms:34642902.409
n:  1032 pts_time:35.786094 perf_counter_ms:34642942.423
n:  1033 pts_time:35.826108 perf_counter_ms:34642982.437
n:  1034 pts_time:35.852784 perf_counter_ms:34643009.113
n:  1035 pts_time:35.892798 perf_counter_ms:34643049.128
n:  1036 pts_time:35.919475 perf_counter_ms:34643075.804
n:  1037 pts_time:35.959489 perf_counter_ms:34643115.818
n:  1038 pts_time:35.986165 perf_counter_ms:34643142.494
n:  1039 pts_time:36.026179 perf_counter_ms:34643182.508
n:  1040 pts_time:36.052855 perf_counter_ms:34643209.185
n:  1041 pts_time:36.079532 perf_counter_ms:34643235.861
n:  1042 pts_time:36.119546 perf_counter_ms:34643275.875
n:  1043 pts_time:36.146222 perf_counter_ms:34643302.551
n:  1044 pts_time:36.186236 perf_counter_ms:34643342.565
n:  1045 pts_time:36.212912 perf_counter_ms:34643369.241
n:  1046 pts_time:36.266265 perf_counter_ms:34643422.594
n:  1047 pts_time:36.292941 perf_counter_ms:34643449.270
n:  1048 pts_time:36.319617 perf_counter_ms:34643475.946
n:  1049 pts_time:36.346293 perf_counter_ms:34643502.622
n:  1050 pts_time:36.386307 perf_counter_ms:34643542.637
n:  1051 pts_time:36.426322 perf_counter_ms:34643582.651
n:  1052 pts_time:36.452998 perf_counter_ms:34643609.327
n:  1053 pts_time:36.493012 perf_counter_ms:34643649.341
n:  1054 pts_time:36.519688 perf_counter_ms:34643676.017
n:  1055 pts_time:36.559703 perf_counter_ms:34643716.032
n:  1056 pts_time:36.586379 perf_counter_ms:34643742.708
n:  1057 pts_time:36.626393 perf_counter_ms:34643782.722
n:  1058 pts_time:36.653069 perf_counter_ms:34643809.398
n:  1059 pts_time:36.693083 perf_counter_ms:34643849.413
n:  1060 pts_time:36.719760 perf_counter_ms:34643876.089
n:  1061 pts_time:36.759774 perf_counter_ms:34643916.103
n:  1062 pts_time:36.786450 perf_counter_ms:34643942.779
n:  1063 pts_time:36.826464 perf_counter_ms:34643982.793
n:  1064 pts_time:36.866479 perf_counter_ms:34644022.808
n:  1065 pts_time:36.906493 perf_counter_ms:34644062.822
n:  1066 pts_time:36.946507 perf_counter_ms:34644102.836
n:  1067 pts_time:36.973183 perf_counter_ms:34644129.513
n:  1068 pts_time:37.013198 perf_counter_ms:34644169.527
n:  1069 pts_time:37.039874 perf_counter_ms:34644196.203
n:  1070 pts_time:37.079888 perf_counter_ms:34644236.217
n:  1071 pts_time:37.119902 perf_counter_ms:34644276.232
n:  1072 pts_time:37.146579 perf_counter_ms:34644302.908
n:  1073 pts_time:37.173255 perf_counter_ms:34644329.584
n:  1074 pts_time:37.213269 perf_counter_ms:34644369.598
n:  1075 pts_time:37.253283 perf_counter_ms:34644409.612
n:  1076 pts_time:37.279960 perf_counter_ms:34644436.289
n:  1077 pts_time:37.319974 perf_counter_ms:34644476.303
n:  1078 pts_time:37.346650 perf_counter_ms:34644502.979
n:  1079 pts_time:37.386664 perf_counter_ms:34644542.993
n:  1080 pts_time:37.426678 perf_counter_ms:34644583.008
n:  1081 pts_time:37.453355 perf_counter_ms:34644609.684
n:  1082 pts_time:37.466693 perf_counter_ms:34644623.022
n:  1083 pts_time:37.506707 perf_counter_ms:34644663.036
n:  1084 pts_time:37.546721 perf_counter_ms:34644703.050
n:  1085 pts_time:37.573397 perf_counter_ms:34644729.726
n:  1086 pts_time:37.613412 perf_counter_ms:34644769.741
n:  1087 pts_time:37.640088 perf_counter_ms:34644796.417
n:  1088 pts_time:37.680102 perf_counter_ms:34644836.431
n:  1089 pts_time:37.720116 perf_counter_ms:34644876.445
n:  1090 pts_time:37.746792 perf_counter_ms:34644903.121
n:  1091 pts_time:37.786807 perf_counter_ms:34644943.136
n:  1092 pts_time:37.813483 perf_counter_ms:34644969.812
n:  1093 pts_time:37.853497 perf_counter_ms:34645009.826
n:  1094 pts_time:37.880173 perf_counter_ms:34645036.502
n:  1095 pts_time:37.933526 perf_counter_ms:34645089.855
n:  1096 pts_time:37.973540 perf_counter_ms:34645129.869
n:  1097 pts_time:38.000216 perf_counter_ms:34645156.546
n:  1098 pts_time:38.040231 perf_counter_ms:34645196.560
n:  1099 pts_time:38.066907 perf_counter_ms:34645223.236
n:  1100 pts_time:38.106921 perf_counter_ms:34645263.250
n:  1101 pts_time:38.133597 perf_counter_ms:34645289.926
n:  1102 pts_time:38.173611 perf_counter_ms:34645329.941
n:  1103 pts_time:38.200288 perf_counter_ms:34645356.617
n:  1104 pts_time:38.240302 perf_counter_ms:34645396.631
n:  1105 pts_time:38.266978 perf_counter_ms:34645423.307
n:  1106 pts_time:38.306992 perf_counter_ms:34645463.322
n:  1107 pts_time:38.333668 perf_counter_ms:34645489.998
n:  1108 pts_time:38.373683 perf_counter_ms:34645530.012
n:  1109 pts_time:38.413697 perf_counter_ms:34645570.026
n:  1110 pts_time:38.440373 perf_counter_ms:34645596.702
n:  1111 pts_time:38.480388 perf_counter_ms:34645636.717
n:  1112 pts_time:38.507064 perf_counter_ms:34645663.393
n:  1113 pts_time:38.547078 perf_counter_ms:34645703.407
n:  1114 pts_time:38.573754 perf_counter_ms:34645730.083
n:  1115 pts_time:38.613768 perf_counter_ms:34645770.098
n:  1116 pts_time:38.653783 perf_counter_ms:34645810.112
n:  1117 pts_time:38.680459 perf_counter_ms:34645836.788
n:  1118 pts_time:38.720473 perf_counter_ms:34645876.802
n:  1119 pts_time:38.747149 perf_counter_ms:34645903.479
n:  1120 pts_time:38.787164 perf_counter_ms:34645943.493
n:  1121 pts_time:38.813840 perf_counter_ms:34645970.169
n:  1122 pts_time:38.853854 perf_counter_ms:34646010.183
n:  1123 pts_time:38.880530 perf_counter_ms:34646036.859
n:  1124 pts_time:38.920545 perf_counter_ms:34646076.874
n:  1125 pts_time:38.960559 perf_counter_ms:34646116.888
n:  1126 pts_time:38.987235 perf_counter_ms:34646143.564
n:  1127 pts_time:39.053925 perf_counter_ms:34646210.255
n:  1128 pts_time:39.080602 perf_counter_ms:34646236.931
n:  1129 pts_time:39.120616 perf_counter_ms:34646276.945
n:  1130 pts_time:39.147292 perf_counter_ms:34646303.621
n:  1131 pts_time:39.187306 perf_counter_ms:34646343.635
n:  1132 pts_time:39.213983 perf_counter_ms:34646370.312
n:  1133 pts_time:39.253997 perf_counter_ms:34646410.326
n:  1134 pts_time:39.294011 perf_counter_ms:34646450.340
n:  1135 pts_time:39.320687 perf_counter_ms:34646477.016
n:  1136 pts_time:39.360702 perf_counter_ms:34646517.031
n:  1137 pts_time:39.387378 perf_counter_ms:34646543.707
n:  1138 pts_time:39.427392 perf_counter_ms:34646583.721
n:  1139 pts_time:39.454068 perf_counter_ms:34646610.397
n:  1140 pts_time:39.494083 perf_counter_ms:34646650.412
n:  1141 pts_time:39.520759 perf_counter_ms:34646677.088
n:  1142 pts_time:39.547435 perf_counter_ms:34646703.764
n:  1143 pts_time:39.587449 perf_counter_ms:34646743.778
n:  1144 pts_time:39.614125 perf_counter_ms:34646770.454
n:  1145 pts_time:39.654139 perf_counter_ms:34646810.469
n:  1146 pts_time:39.680816 perf_counter_ms:34646837.145
n:  1147 pts_time:39.720830 perf_counter_ms:34646877.159
n:  1148 pts_time:39.747506 perf_counter_ms:34646903.835
n:  1149 pts_time:39.800859 perf_counter_ms:34646957.188
n:  1150 pts_time:39.827535 perf_counter_ms:34646983.864
n:  1151 pts_time:39.867549 perf_counter_ms:34647023.878
n:  1152 pts_time:39.907563 perf_counter_ms:34647063.892
n:  1153 pts_time:39.934239 perf_counter_ms:34647090.569
n:  1154 pts_time:39.974254 perf_counter_ms:34647130.583
n:  1155 pts_time:40.000930 perf_counter_ms:34647157.259
n:  1156 pts_time:40.040944 perf_counter_ms:34647197.273
n:  1157 pts_time:40.067620 perf_counter_ms:34647223.950
n:  1158 pts_time:40.107635 perf_counter_ms:34647263.964
n:  1159 pts_time:40.147649 perf_counter_ms:34647303.978
n:  1160 pts_time:40.174325 perf_counter_ms:34647330.654
n:  1161 pts_time:40.201001 perf_counter_ms:34647357.330
n:  1162 pts_time:40.227677 perf_counter_ms:34647384.006
n:  1163 pts_time:40.267692 perf_counter_ms:34647424.021
n:  1164 pts_time:40.294368 perf_counter_ms:34647450.697
n:  1165 pts_time:40.334382 perf_counter_ms:34647490.711
n:  1166 pts_time:40.387735 perf_counter_ms:34647544.064
n:  1167 pts_time:40.427749 perf_counter_ms:34647584.078
n:  1168 pts_time:40.454425 perf_counter_ms:34647610.754
n:  1169 pts_time:40.494439 perf_counter_ms:34647650.768
n:  1170 pts_time:40.521115 perf_counter_ms:34647677.445
n:  1171 pts_time:40.561130 perf_counter_ms:34647717.459
